<?xml version="1.0" encoding="utf-8"?>
<!-- Generator: Adobe Illustrator 27.0.0, SVG Export Plug-In . SVG Version: 6.00 Build 0)  -->
<svg version="1.1" id="圖層_1" xmlns="http://www.w3.org/2000/svg" xmlns:xlink="http://www.w3.org/1999/xlink" x="0px" y="0px"
	 viewBox="0 0 316 320" style="enable-background:new 0 0 316 320;" xml:space="preserve">
<style type="text/css">
	.st0{fill:#0C3D6A;}
	.st1{fill:#7ADBFF;}
	.st2{opacity:0.7;}
</style>
<g>
	<g>
		<path class="st0" d="M314,258c-1-34-28-49-36-53c3-7,11-28-1-49c-13-23-36-28-46-29c5-7,14-23,13-43c-1-25-19-45-29-52
			c-8-5-45-30-51-32c-3,0-6,0-8,2s-4,5-4,8v32c0,9-11,23-24,23s-28,3-42,22c-12,16-9,33-6,40c-8,1-27,6-39,28c-13,23-6,43-3,50
			c-9,4-36,20-36,55c0,36,34,60,52,60h205c8,0,26-6,39-20C309,289,315,274,314,258z M259,314H54c-16,0-47-22-47-55c0-38,34-50,35-51
			l3-1l-1-2c-1,0-12-23,1-48s36-25,37-25h3l-1-3c0,0-1.9-5.7-1.9-13.5c0-7.2,1.6-16.4,7.9-24.5c13-18,26-20,38-20c15,0,29-16,29-28
			V10c0-1,1-3,2-4c0,0,2.1-2.5,4-2c4,1.1,32,20,49,31c10,7,26,26,27,49c1,24-14,43-14,43l-3,4h5c0,0,31,0,46,27c13,23,0,47,0,47
			l-1,2l3,1c1,1,34,14,35,50c0,14-5,27-15,38C282,309,265,314,259,314z"/>
		<path class="st1" d="M310,258c0,14-5,27-15,38c-13,13-30,18-36,18H54c-16,0-47-22-47-55c0-38,34-50,35-51l3-1l-1-2
			c-1,0-12-23,1-48s36-25,37-25h3l-1-3c0,0-1.9-5.7-1.9-13.5c0-7.2,1.6-16.4,7.9-24.5c13-18,26-20,38-20c15,0,29-16,29-28V10
			c0-1,1-3,2-4c0,0,2.1-2.5,4-2c4,1.1,32,20,49,31c10,7,26,26,27,49c1,24-14,43-14,43l-3,4h5c0,0,31,0,46,27c13,23,0,47,0,47l-1,2
			l3,1C276,209,309,222,310,258z"/>
	</g>
	<g>
		<g class="st2">
			<ellipse cx="94" cy="184" rx="21" ry="22"/>
		</g>
		<g class="st2">
			<ellipse cx="222" cy="184" rx="21" ry="22"/>
		</g>
	</g>
	<g class="st2">
		<path d="M158,288c33,0,51-20,59-37c6-11-3-22-16-22h-89c-12,0-21,11-15,22C107,268,125,288,158,288z"/>
	</g>
	<g>
		<g>
			<path class="st0" d="M244,242c-39,0-72-33-72-73s32-73,72-73c39,0,72,33,72,73S283,242,244,242z M244,111c-31,0-57,26-57,58
				s26,58,57,58s57-26,57-58S275,111,244,111z"/>
		</g>
		<g>
			<path class="st0" d="M72,242c-39,0-72-33-72-73s32-73,72-73s72,33,72,73S112,242,72,242z M72,111c-31,0-57,26-57,58s26,58,57,58
				s57-26,57-58S103,111,72,111z"/>
		</g>
	</g>
</g>
</svg>
